<mxfile host="app.diagrams.net" agent="Mozilla/5.0 (Windows NT 10.0; Win64; x64) AppleWebKit/537.36 (KHTML, like Gecko) Chrome/131.0.0.0 Safari/537.36 OPR/116.0.0.0" version="26.0.16">
  <diagram name="Página-1" id="8lp50mSGuzHB9qT27Pt1">
    <mxGraphModel dx="1392" dy="753" grid="1" gridSize="10" guides="1" tooltips="1" connect="1" arrows="1" fold="1" page="1" pageScale="1" pageWidth="827" pageHeight="1169" math="0" shadow="0">
      <root>
        <mxCell id="0" />
        <mxCell id="1" parent="0" />
        <mxCell id="OwMCTdRIGzjZRxUmAd4S-17" style="edgeStyle=orthogonalEdgeStyle;rounded=0;orthogonalLoop=1;jettySize=auto;html=1;entryX=0.5;entryY=0;entryDx=0;entryDy=0;" edge="1" parent="1" source="OwMCTdRIGzjZRxUmAd4S-4" target="OwMCTdRIGzjZRxUmAd4S-7">
          <mxGeometry relative="1" as="geometry">
            <mxPoint x="393" y="400" as="targetPoint" />
          </mxGeometry>
        </mxCell>
        <mxCell id="OwMCTdRIGzjZRxUmAd4S-4" value="Login/cadastro" style="rounded=0;whiteSpace=wrap;html=1;" vertex="1" parent="1">
          <mxGeometry x="323" y="205" width="140" height="80" as="geometry" />
        </mxCell>
        <mxCell id="OwMCTdRIGzjZRxUmAd4S-21" style="edgeStyle=orthogonalEdgeStyle;rounded=0;orthogonalLoop=1;jettySize=auto;html=1;entryX=1;entryY=0.5;entryDx=0;entryDy=0;" edge="1" parent="1" source="OwMCTdRIGzjZRxUmAd4S-7" target="OwMCTdRIGzjZRxUmAd4S-11">
          <mxGeometry relative="1" as="geometry" />
        </mxCell>
        <mxCell id="OwMCTdRIGzjZRxUmAd4S-23" style="edgeStyle=orthogonalEdgeStyle;rounded=0;orthogonalLoop=1;jettySize=auto;html=1;" edge="1" parent="1" source="OwMCTdRIGzjZRxUmAd4S-7" target="OwMCTdRIGzjZRxUmAd4S-9">
          <mxGeometry relative="1" as="geometry" />
        </mxCell>
        <mxCell id="OwMCTdRIGzjZRxUmAd4S-7" value="usuário" style="rounded=0;whiteSpace=wrap;html=1;" vertex="1" parent="1">
          <mxGeometry x="480" y="350" width="140" height="80" as="geometry" />
        </mxCell>
        <mxCell id="OwMCTdRIGzjZRxUmAd4S-8" value="espere por 15&lt;div&gt;&amp;nbsp;minutos pra tentar de novo&lt;/div&gt;" style="rounded=0;whiteSpace=wrap;html=1;" vertex="1" parent="1">
          <mxGeometry x="87" width="140" height="80" as="geometry" />
        </mxCell>
        <mxCell id="OwMCTdRIGzjZRxUmAd4S-27" style="edgeStyle=orthogonalEdgeStyle;rounded=0;orthogonalLoop=1;jettySize=auto;html=1;" edge="1" parent="1" source="OwMCTdRIGzjZRxUmAd4S-9" target="OwMCTdRIGzjZRxUmAd4S-24">
          <mxGeometry relative="1" as="geometry" />
        </mxCell>
        <mxCell id="OwMCTdRIGzjZRxUmAd4S-9" value="senha" style="rounded=0;whiteSpace=wrap;html=1;" vertex="1" parent="1">
          <mxGeometry x="480" y="530" width="140" height="80" as="geometry" />
        </mxCell>
        <mxCell id="OwMCTdRIGzjZRxUmAd4S-16" style="edgeStyle=orthogonalEdgeStyle;rounded=0;orthogonalLoop=1;jettySize=auto;html=1;entryX=0.5;entryY=1;entryDx=0;entryDy=0;" edge="1" parent="1" source="OwMCTdRIGzjZRxUmAd4S-10" target="OwMCTdRIGzjZRxUmAd4S-8">
          <mxGeometry relative="1" as="geometry" />
        </mxCell>
        <mxCell id="OwMCTdRIGzjZRxUmAd4S-19" style="edgeStyle=orthogonalEdgeStyle;rounded=0;orthogonalLoop=1;jettySize=auto;html=1;entryX=0;entryY=0.5;entryDx=0;entryDy=0;" edge="1" parent="1" source="OwMCTdRIGzjZRxUmAd4S-10" target="OwMCTdRIGzjZRxUmAd4S-4">
          <mxGeometry relative="1" as="geometry" />
        </mxCell>
        <mxCell id="OwMCTdRIGzjZRxUmAd4S-10" value="limite de 3 tentativas" style="rhombus;whiteSpace=wrap;html=1;" vertex="1" parent="1">
          <mxGeometry x="80" y="180" width="147" height="130" as="geometry" />
        </mxCell>
        <mxCell id="OwMCTdRIGzjZRxUmAd4S-22" style="edgeStyle=orthogonalEdgeStyle;rounded=0;orthogonalLoop=1;jettySize=auto;html=1;entryX=0.5;entryY=1;entryDx=0;entryDy=0;" edge="1" parent="1" source="OwMCTdRIGzjZRxUmAd4S-11" target="OwMCTdRIGzjZRxUmAd4S-10">
          <mxGeometry relative="1" as="geometry" />
        </mxCell>
        <mxCell id="OwMCTdRIGzjZRxUmAd4S-11" value="incorreto" style="rhombus;whiteSpace=wrap;html=1;" vertex="1" parent="1">
          <mxGeometry x="250" y="330" width="147" height="130" as="geometry" />
        </mxCell>
        <mxCell id="OwMCTdRIGzjZRxUmAd4S-26" style="edgeStyle=orthogonalEdgeStyle;rounded=0;orthogonalLoop=1;jettySize=auto;html=1;" edge="1" parent="1" source="OwMCTdRIGzjZRxUmAd4S-12" target="OwMCTdRIGzjZRxUmAd4S-10">
          <mxGeometry relative="1" as="geometry" />
        </mxCell>
        <mxCell id="OwMCTdRIGzjZRxUmAd4S-12" value="incorreto" style="rhombus;whiteSpace=wrap;html=1;" vertex="1" parent="1">
          <mxGeometry x="250" y="505" width="147" height="130" as="geometry" />
        </mxCell>
        <mxCell id="OwMCTdRIGzjZRxUmAd4S-14" style="edgeStyle=orthogonalEdgeStyle;rounded=0;orthogonalLoop=1;jettySize=auto;html=1;" edge="1" parent="1" source="OwMCTdRIGzjZRxUmAd4S-13" target="OwMCTdRIGzjZRxUmAd4S-4">
          <mxGeometry relative="1" as="geometry" />
        </mxCell>
        <mxCell id="OwMCTdRIGzjZRxUmAd4S-13" value="inicio" style="ellipse;whiteSpace=wrap;html=1;aspect=fixed;" vertex="1" parent="1">
          <mxGeometry x="348" width="90" height="90" as="geometry" />
        </mxCell>
        <mxCell id="OwMCTdRIGzjZRxUmAd4S-18" value="Não" style="text;html=1;align=center;verticalAlign=middle;whiteSpace=wrap;rounded=0;" vertex="1" parent="1">
          <mxGeometry x="250" y="220" width="60" height="30" as="geometry" />
        </mxCell>
        <mxCell id="OwMCTdRIGzjZRxUmAd4S-29" style="edgeStyle=orthogonalEdgeStyle;rounded=0;orthogonalLoop=1;jettySize=auto;html=1;entryX=0;entryY=0.5;entryDx=0;entryDy=0;" edge="1" parent="1" source="OwMCTdRIGzjZRxUmAd4S-24" target="OwMCTdRIGzjZRxUmAd4S-28">
          <mxGeometry relative="1" as="geometry" />
        </mxCell>
        <mxCell id="OwMCTdRIGzjZRxUmAd4S-24" value="acessar&lt;span style=&quot;color: rgba(0, 0, 0, 0); font-family: monospace; font-size: 0px; text-align: start; text-wrap-mode: nowrap;&quot;&gt;%3CmxGraphModel%3E%3Croot%3E%3CmxCell%20id%3D%220%22%2F%3E%3CmxCell%20id%3D%221%22%20parent%3D%220%22%2F%3E%3CmxCell%20id%3D%222%22%20value%3D%22incorreto%22%20style%3D%22rhombus%3BwhiteSpace%3Dwrap%3Bhtml%3D1%3B%22%20vertex%3D%221%22%20parent%3D%221%22%3E%3CmxGeometry%20x%3D%22250%22%20y%3D%22330%22%20width%3D%22147%22%20height%3D%22130%22%20as%3D%22geometry%22%2F%3E%3C%2FmxCell%3E%3C%2Froot%3E%3C%2FmxGraphModel%3E&lt;/span&gt;" style="rounded=0;whiteSpace=wrap;html=1;" vertex="1" parent="1">
          <mxGeometry x="480" y="730" width="140" height="80" as="geometry" />
        </mxCell>
        <mxCell id="OwMCTdRIGzjZRxUmAd4S-25" style="edgeStyle=orthogonalEdgeStyle;rounded=0;orthogonalLoop=1;jettySize=auto;html=1;entryX=0.959;entryY=0.523;entryDx=0;entryDy=0;entryPerimeter=0;" edge="1" parent="1" source="OwMCTdRIGzjZRxUmAd4S-9" target="OwMCTdRIGzjZRxUmAd4S-12">
          <mxGeometry relative="1" as="geometry" />
        </mxCell>
        <mxCell id="OwMCTdRIGzjZRxUmAd4S-28" value="pesquisar obras" style="rounded=0;whiteSpace=wrap;html=1;" vertex="1" parent="1">
          <mxGeometry x="730" y="730" width="140" height="80" as="geometry" />
        </mxCell>
      </root>
    </mxGraphModel>
  </diagram>
</mxfile>
